<?xml version="1.0" encoding="UTF-8" standalone="no"?>
<!-- Created with Inkscape (http://www.inkscape.org/) -->

<svg
   xmlns:dc="http://purl.org/dc/elements/1.1/"
   xmlns:cc="http://creativecommons.org/ns#"
   xmlns:rdf="http://www.w3.org/1999/02/22-rdf-syntax-ns#"
   xmlns:svg="http://www.w3.org/2000/svg"
   xmlns="http://www.w3.org/2000/svg"
   xmlns:sodipodi="http://sodipodi.sourceforge.net/DTD/sodipodi-0.dtd"
   xmlns:inkscape="http://www.inkscape.org/namespaces/inkscape"
   width="160mm"
   height="160mm"
   viewBox="0 0 160 160"
   version="1.1"
   id="svg8"
   inkscape:version="0.92.1 r15371"
   sodipodi:docname="disk.svg">
  <defs
     id="defs2" />
  <sodipodi:namedview
     id="base"
     pagecolor="#ffffff"
     bordercolor="#666666"
     borderopacity="1.0"
     inkscape:pageopacity="0.0"
     inkscape:pageshadow="2"
     inkscape:zoom="1.3758333"
     inkscape:cx="783.46594"
     inkscape:cy="477.82298"
     inkscape:document-units="mm"
     inkscape:current-layer="layer1"
     showgrid="true"
     inkscape:window-width="3840"
     inkscape:window-height="2081"
     inkscape:window-x="-9"
     inkscape:window-y="-9"
     inkscape:window-maximized="1">
    <inkscape:grid
       type="xygrid"
       id="grid4485"
       units="cm"
       spacingx="4.9999999"
       spacingy="4.9999999"
       empspacing="4"
       snapvisiblegridlinesonly="true"
       dotted="false" />
  </sodipodi:namedview>
  <metadata
     id="metadata5">
    <rdf:RDF>
      <cc:Work
         rdf:about="">
        <dc:format>image/svg+xml</dc:format>
        <dc:type
           rdf:resource="http://purl.org/dc/dcmitype/StillImage" />
        <dc:title></dc:title>
      </cc:Work>
    </rdf:RDF>
  </metadata>
  <g
     inkscape:label="Layer 1"
     inkscape:groupmode="layer"
     id="layer1"
     transform="translate(0,-137)">
    <path
       style="fill:#ececec;fill-opacity:1;stroke:none;stroke-width:1.00157475;stroke-miterlimit:4;stroke-dasharray:none;stroke-dashoffset:0"
       d="M 302.36133 -18.898438 A 321.25981 321.25981 0 0 0 -18.898438 302.36133 A 321.25981 321.25981 0 0 0 302.36133 623.62109 A 321.25981 321.25981 0 0 0 623.62109 302.36133 A 321.25981 321.25981 0 0 0 302.36133 -18.898438 z M 302.36133 283.46484 A 18.897638 18.897638 0 0 1 321.25977 302.36133 A 18.897638 18.897638 0 0 1 302.36133 321.25977 A 18.897638 18.897638 0 0 1 283.46484 302.36133 A 18.897638 18.897638 0 0 1 302.36133 283.46484 z "
       transform="matrix(0.26458333,0,0,0.26458333,0,137)"
       id="bg" />
    <path
       style="fill:#000000;fill-opacity:1;stroke:none;stroke-width:1.00157475;stroke-miterlimit:4;stroke-dasharray:none;stroke-dashoffset:0"
       d="M 302.36133,0 C 135.37198,4.8048509e-4 4.8048509e-4,135.37198 0,302.36133 c -5.9646851e-4,166.99011 135.37122,302.3628 302.36133,302.36328 166.99088,6e-4 302.36388,-135.3724 302.36328,-302.36328 C 604.72413,135.37122 469.35144,-5.9646851e-4 302.36133,0 Z m 0,37.794922 V 188.97656 c 40.47959,0.0584 77.85775,21.69269 98.07226,56.76367 l 130.76563,-75.49804 c 23.29246,40.14338 35.61495,85.70776 35.73047,132.11914 -0.0311,34.73744 -6.90268,69.12873 -20.22266,101.21094 l -139.625,-57.83399 c -3.82163,9.13383 -8.82315,17.72776 -14.87695,25.5625 L 511.99805,463.2207 C 462.02313,528.47823 384.55635,566.80167 302.36133,566.92969 V 415.74805 c -40.47959,-0.0584 -77.85776,-21.69268 -98.07227,-56.76367 L 73.525391,434.48242 C 50.232606,394.33847 37.910102,348.77337 37.794922,302.36133 c 0.03069,-34.73665 6.901644,-69.12725 20.220703,-101.20899 l 139.626955,57.83399 c 3.82163,-9.13383 8.82315,-17.72776 14.87695,-25.5625 L 92.726562,141.50391 C 142.70107,76.246922 220.16699,37.923543 302.36133,37.794922 Z m 0,170.078128 c -52.18446,-5e-5 -94.48833,42.30382 -94.48828,94.48828 -5e-5,52.18446 42.30382,94.48833 94.48828,94.48828 52.18446,5e-5 94.48833,-42.30382 94.48828,-94.48828 5e-5,-52.18446 -42.30382,-94.48833 -94.48828,-94.48828 z m 0,56.69336 c 20.87424,-8.8e-4 37.79667,16.92068 37.79687,37.79492 8.8e-4,20.875 -16.92187,37.79775 -37.79687,37.79687 -20.87424,-2e-4 -37.7958,-16.92263 -37.79492,-37.79687 2e-4,-20.87348 16.92144,-37.79472 37.79492,-37.79492 z"
       transform="matrix(0.26458333,0,0,0.26458333,0,137)"
       id="fg"
       inkscape:connector-curvature="0"
       sodipodi:nodetypes="sssssccccccccccccccccccccccccccccc" />
  </g>
</svg>
