<?xml version="1.0" encoding="UTF-8" standalone="no"?>
<!-- Created with Inkscape (http://www.inkscape.org/) -->

<svg
   xmlns:dc="http://purl.org/dc/elements/1.1/"
   xmlns:cc="http://creativecommons.org/ns#"
   xmlns:rdf="http://www.w3.org/1999/02/22-rdf-syntax-ns#"
   xmlns:svg="http://www.w3.org/2000/svg"
   xmlns="http://www.w3.org/2000/svg"
   xmlns:sodipodi="http://sodipodi.sourceforge.net/DTD/sodipodi-0.dtd"
   xmlns:inkscape="http://www.inkscape.org/namespaces/inkscape"
   width="160mm"
   height="160mm"
   viewBox="0 0 160 160"
   version="1.1"
   id="svg8"
   inkscape:version="0.92.1 r15371"
   sodipodi:docname="forward.svg">
  <defs
     id="defs2" />
  <sodipodi:namedview
     id="base"
     pagecolor="#ffffff"
     bordercolor="#666666"
     borderopacity="1.0"
     inkscape:pageopacity="0.0"
     inkscape:pageshadow="2"
     inkscape:zoom="1.9457221"
     inkscape:cx="282.14208"
     inkscape:cy="305.80438"
     inkscape:document-units="mm"
     inkscape:current-layer="layer1"
     showgrid="true"
     inkscape:window-width="3840"
     inkscape:window-height="2081"
     inkscape:window-x="-9"
     inkscape:window-y="-9"
     inkscape:window-maximized="1">
    <inkscape:grid
       type="xygrid"
       id="grid4485"
       units="cm"
       spacingx="4.9999999"
       spacingy="4.9999999"
       empspacing="4"
       snapvisiblegridlinesonly="true"
       dotted="false" />
  </sodipodi:namedview>
  <metadata
     id="metadata5">
    <rdf:RDF>
      <cc:Work
         rdf:about="">
        <dc:format>image/svg+xml</dc:format>
        <dc:type
           rdf:resource="http://purl.org/dc/dcmitype/StillImage" />
        <dc:title></dc:title>
      </cc:Work>
    </rdf:RDF>
  </metadata>
  <g
     inkscape:label="Layer 1"
     inkscape:groupmode="layer"
     id="layer1"
     transform="translate(0,-137)">
    <path
       style="fill:#f2f2f2;stroke:none;stroke-width:0.26458332px;stroke-linecap:butt;stroke-linejoin:miter;stroke-opacity:1"
       d="m 80.000088,277.00029 v -40.00014 h -10.00042 c -11.045555,-1e-4 -19.999721,-8.95427 -19.99982,-19.99982 C 49.999665,205.95458 58.953914,197.0001 69.999668,197 h 20.00033 v 30 L 159.99986,177.00019 89.999998,127 v 29.99986 h -20.00033 c -33.137253,2e-5 -60.0002207,26.86322 -59.99996,60.00047 2.1e-5,33.13705 26.862906,59.99994 59.99996,59.99996 z"
       id="bg"
       inkscape:connector-curvature="0"
       sodipodi:nodetypes="ccccccccccscsc" />
    <path
       style="fill:#000000;stroke:none;stroke-width:0.26458332px;stroke-linecap:butt;stroke-linejoin:miter;stroke-opacity:1"
       d="m 69.99976,266.99958 v -19.99981 c -16.568531,1.3e-4 -30.000091,-13.4312 -30.00024,-29.99973 -1.27e-4,-16.56873 13.431514,-30.00036 30.00024,-30.00023 H 99.999998 V 207 L 140.00014,176.9999 99.999998,147 v 20 H 69.99976 c -27.614273,-3e-5 -50.000072,22.38577 -50.00005,50.00004 2.54e-4,27.61408 22.385973,49.99957 50.00005,49.99954 z"
       id="fg"
       inkscape:connector-curvature="0"
       sodipodi:nodetypes="cccccccccccc" />
  </g>
</svg>
