<?xml version="1.0" encoding="UTF-8" standalone="no"?>
<!-- Created with Inkscape (http://www.inkscape.org/) -->

<svg
   xmlns:dc="http://purl.org/dc/elements/1.1/"
   xmlns:cc="http://creativecommons.org/ns#"
   xmlns:rdf="http://www.w3.org/1999/02/22-rdf-syntax-ns#"
   xmlns:svg="http://www.w3.org/2000/svg"
   xmlns="http://www.w3.org/2000/svg"
   xmlns:sodipodi="http://sodipodi.sourceforge.net/DTD/sodipodi-0.dtd"
   xmlns:inkscape="http://www.inkscape.org/namespaces/inkscape"
   width="160mm"
   height="160mm"
   viewBox="0 0 160 160"
   version="1.1"
   id="svg8"
   inkscape:version="0.92.1 r15371"
   sodipodi:docname="question.svg">
  <defs
     id="defs2" />
  <sodipodi:namedview
     id="base"
     pagecolor="#ffffff"
     bordercolor="#666666"
     borderopacity="1.0"
     inkscape:pageopacity="0.0"
     inkscape:pageshadow="2"
     inkscape:zoom="1.3758333"
     inkscape:cx="596.86148"
     inkscape:cy="582.46788"
     inkscape:document-units="mm"
     inkscape:current-layer="layer1"
     showgrid="true"
     inkscape:window-width="3840"
     inkscape:window-height="2081"
     inkscape:window-x="-9"
     inkscape:window-y="-9"
     inkscape:window-maximized="1">
    <inkscape:grid
       type="xygrid"
       id="grid4485"
       units="cm"
       spacingx="4.9999999"
       spacingy="4.9999999"
       empspacing="4"
       snapvisiblegridlinesonly="true"
       dotted="false" />
  </sodipodi:namedview>
  <metadata
     id="metadata5">
    <rdf:RDF>
      <cc:Work
         rdf:about="">
        <dc:format>image/svg+xml</dc:format>
        <dc:type
           rdf:resource="http://purl.org/dc/dcmitype/StillImage" />
        <dc:title></dc:title>
      </cc:Work>
    </rdf:RDF>
  </metadata>
  <g
     inkscape:label="Layer 1"
     inkscape:groupmode="layer"
     id="layer1"
     transform="translate(0,-137)">
    <path
       style="fill:#f2f2f2;fill-opacity:1;stroke:none;stroke-width:0.26499999;stroke-miterlimit:4;stroke-dasharray:none;stroke-dashoffset:0"
       d="M 164.99999,217 A 84.999992,84.999992 0 0 1 80,301.99999 84.999992,84.999992 0 0 1 -4.9999924,217 84.999992,84.999992 0 0 1 80,132.00001 84.999992,84.999992 0 0 1 164.99999,217 Z"
       id="bg" />
    <path
       style="fill:#000000;fill-opacity:1;stroke:none;stroke-width:0.37795275;stroke-miterlimit:4;stroke-dasharray:none;stroke-dashoffset:0"
       d="M 302.36133 37.794922 A 264.56693 264.56693 0 0 0 37.794922 302.36133 A 264.56693 264.56693 0 0 0 302.36133 566.92969 A 264.56693 264.56693 0 0 0 566.92969 302.36133 A 264.56693 264.56693 0 0 0 302.36133 37.794922 z M 308.13867 126.43945 C 327.59567 126.43945 344.73617 128.7541 359.56055 133.38672 C 374.53935 137.86492 387.28065 144.19657 397.78125 152.38086 C 407.97301 160.56515 415.69306 170.21765 420.94336 181.33594 C 426.34808 192.2998 429.05078 204.343 429.05078 217.46875 C 429.05078 232.75639 426.73418 246.49999 422.10156 258.69922 C 417.62336 270.74403 411.21567 281.24478 402.87695 290.20117 C 394.69266 299.00315 384.81006 306.8792 373.22852 313.82812 C 361.80139 320.77705 348.98404 327.1087 334.77734 332.82227 L 334.77734 385.63281 L 255.55859 385.63281 L 255.55859 308.03711 C 264.20615 305.7208 273.78065 302.55595 284.28125 298.54102 C 294.93627 294.52608 304.27872 289.58478 312.30859 283.7168 C 320.80173 277.69439 327.75153 270.66659 333.15625 262.63672 C 338.56097 254.60685 341.26172 245.11035 341.26172 234.14648 C 341.26172 218.85884 336.39842 207.7419 326.66992 200.79297 C 316.94142 193.84404 303.42988 190.36914 286.13477 190.36914 C 273.16343 190.36914 259.34184 193.22589 244.67188 198.93945 C 230.15634 204.65302 218.72934 210.36651 210.39062 216.08008 L 203.67383 216.08008 L 203.67383 146.35938 C 213.55675 142.0356 227.99454 137.63445 246.98828 133.15625 C 265.98202 128.67805 286.36536 126.43945 308.13867 126.43945 z M 250 417.13477 L 341.26172 417.13477 L 341.26172 478.28516 L 250 478.28516 L 250 417.13477 z "
       transform="matrix(0.26458333,0,0,0.26458333,0,137)"
       id="fg" />
  </g>
</svg>
