<?xml version="1.0" encoding="UTF-8" standalone="no"?>
<!-- Created with Inkscape (http://www.inkscape.org/) -->

<svg
   xmlns:dc="http://purl.org/dc/elements/1.1/"
   xmlns:cc="http://creativecommons.org/ns#"
   xmlns:rdf="http://www.w3.org/1999/02/22-rdf-syntax-ns#"
   xmlns:svg="http://www.w3.org/2000/svg"
   xmlns="http://www.w3.org/2000/svg"
   xmlns:sodipodi="http://sodipodi.sourceforge.net/DTD/sodipodi-0.dtd"
   xmlns:inkscape="http://www.inkscape.org/namespaces/inkscape"
   width="160mm"
   height="160mm"
   viewBox="0 0 160 160"
   version="1.1"
   id="svg8"
   inkscape:version="0.92.1 r15371"
   sodipodi:docname="refresh.svg">
  <defs
     id="defs2" />
  <sodipodi:namedview
     id="base"
     pagecolor="#ffffff"
     bordercolor="#666666"
     borderopacity="1.0"
     inkscape:pageopacity="0.0"
     inkscape:pageshadow="2"
     inkscape:zoom="1.9457221"
     inkscape:cx="372.59693"
     inkscape:cy="305.80438"
     inkscape:document-units="mm"
     inkscape:current-layer="layer1"
     showgrid="true"
     inkscape:window-width="3840"
     inkscape:window-height="2081"
     inkscape:window-x="-9"
     inkscape:window-y="-9"
     inkscape:window-maximized="1">
    <inkscape:grid
       type="xygrid"
       id="grid4485"
       units="cm"
       spacingx="4.9999999"
       spacingy="4.9999999"
       empspacing="4"
       snapvisiblegridlinesonly="true"
       dotted="false" />
  </sodipodi:namedview>
  <metadata
     id="metadata5">
    <rdf:RDF>
      <cc:Work
         rdf:about="">
        <dc:format>image/svg+xml</dc:format>
        <dc:type
           rdf:resource="http://purl.org/dc/dcmitype/StillImage" />
        <dc:title></dc:title>
      </cc:Work>
    </rdf:RDF>
  </metadata>
  <g
     inkscape:label="Layer 1"
     inkscape:groupmode="layer"
     id="layer1"
     transform="translate(0,-137)">
    <path
       inkscape:connector-curvature="0"
       style="fill:#f2f2f2;fill-opacity:1;stroke:none;stroke-width:0.38093749;stroke-miterlimit:4;stroke-dasharray:none;stroke-dashoffset:0"
       d="m 151.15249,125.51794 -21.24995,21.24993 a 86.249999,86.249999 0 0 0 -110.890452,9.24376 86.249999,86.249999 0 0 0 -5.24e-4,121.97636 86.249999,86.249999 0 0 0 121.976876,0 l 10.16457,-10.16456 -40.65879,-40.6588 -10.16456,10.16458 a 28.749999,28.749999 0 0 1 -40.659309,0 28.749999,28.749999 0 0 1 5.21e-4,-40.6588 28.749999,28.749999 0 0 1 27.741266,-7.41212 l -17.576698,17.5767 106.72871,25.4122 z"
       id="bg" />
    <path
       inkscape:connector-curvature="0"
       style="fill:#000000;fill-opacity:1;stroke:none;stroke-width:0.38093749;stroke-miterlimit:4;stroke-dasharray:none;stroke-dashoffset:0"
       d="m 146.06993,150.92961 -15.2471,15.24711 a 71.875001,71.875001 0 0 0 -101.64565,0 71.875001,71.875001 0 0 0 -5.25e-4,101.64618 71.875001,71.875001 0 0 0 101.646695,0 l -20.32913,-20.32913 a 43.125001,43.125001 0 0 1 -60.988437,0 43.125001,43.125001 0 0 1 5.25e-4,-60.98792 43.125001,43.125001 0 0 1 60.987402,0 l -15.247121,15.24712 66.070461,15.2471 z"
       id="fg" />
  </g>
</svg>
