<?xml version="1.0" encoding="UTF-8" standalone="no"?>
<!-- Created with Inkscape (http://www.inkscape.org/) -->

<svg
   xmlns:dc="http://purl.org/dc/elements/1.1/"
   xmlns:cc="http://creativecommons.org/ns#"
   xmlns:rdf="http://www.w3.org/1999/02/22-rdf-syntax-ns#"
   xmlns:svg="http://www.w3.org/2000/svg"
   xmlns="http://www.w3.org/2000/svg"
   xmlns:sodipodi="http://sodipodi.sourceforge.net/DTD/sodipodi-0.dtd"
   xmlns:inkscape="http://www.inkscape.org/namespaces/inkscape"
   width="160mm"
   height="160mm"
   viewBox="0 0 160 160"
   version="1.1"
   id="svg8"
   inkscape:version="0.92.1 r15371"
   sodipodi:docname="up.svg">
  <defs
     id="defs2" />
  <sodipodi:namedview
     id="base"
     pagecolor="#ffffff"
     bordercolor="#666666"
     borderopacity="1.0"
     inkscape:pageopacity="0.0"
     inkscape:pageshadow="2"
     inkscape:zoom="0.97286106"
     inkscape:cx="873.15221"
     inkscape:cy="476.637"
     inkscape:document-units="mm"
     inkscape:current-layer="layer1"
     showgrid="false"
     inkscape:window-width="3840"
     inkscape:window-height="2081"
     inkscape:window-x="-9"
     inkscape:window-y="-9"
     inkscape:window-maximized="1">
    <inkscape:grid
       type="xygrid"
       id="grid4485"
       units="cm"
       spacingx="4.9999999"
       spacingy="4.9999999"
       empspacing="4"
       snapvisiblegridlinesonly="true"
       dotted="false" />
  </sodipodi:namedview>
  <metadata
     id="metadata5">
    <rdf:RDF>
      <cc:Work
         rdf:about="">
        <dc:format>image/svg+xml</dc:format>
        <dc:type
           rdf:resource="http://purl.org/dc/dcmitype/StillImage" />
        <dc:title></dc:title>
      </cc:Work>
    </rdf:RDF>
  </metadata>
  <g
     inkscape:label="Layer 1"
     inkscape:groupmode="layer"
     id="layer1"
     transform="translate(0,-137)">
    <path
       style="fill:#f2f2f2;fill-opacity:1;stroke:none;stroke-width:0.26499999;stroke-miterlimit:4;stroke-dasharray:none;stroke-dashoffset:0"
       d="M 164.99999,217 A 84.999992,84.999992 0 0 1 80,301.99999 84.999992,84.999992 0 0 1 -4.9999924,217 84.999992,84.999992 0 0 1 80,132.00001 84.999992,84.999992 0 0 1 164.99999,217 Z"
       id="bg" />
    <path
       style="fill:#000000;fill-opacity:1;stroke:none;stroke-width:1.00157475;stroke-miterlimit:4;stroke-dasharray:none;stroke-dashoffset:0"
       d="M 302.36133 37.794922 A 264.56693 264.56693 0 0 0 37.794922 302.36133 A 264.56693 264.56693 0 0 0 302.36133 566.92969 A 264.56693 264.56693 0 0 0 566.92969 302.36133 A 264.56693 264.56693 0 0 0 302.36133 37.794922 z M 302.36133 113.38672 L 491.33789 302.36133 L 453.54297 340.1582 L 340.1582 226.77148 L 340.1582 491.33789 L 264.56641 491.33789 L 264.56641 226.77148 L 151.18164 340.1582 L 113.38672 302.36133 L 302.36133 113.38672 z "
       transform="matrix(0.26458333,0,0,0.26458333,0,137)"
       id="fg"
       inkscape:label="#fg" />
  </g>
</svg>
